<svg width="34" height="34" viewBox="0 0 34 34" fill="none" xmlns="http://www.w3.org/2000/svg">
<g clip-path="url(#clip0)">
<path d="M33.01 8.84419H31.8876C28.9004 3.39784 23.224 0.0275879 17 0.0275879C10.7795 0.0275879 5.0997 3.39897 2.11264 8.84419H0.990039C0.444122 8.84419 0 9.28831 0 9.83422V24.1646C0 24.7105 0.444189 25.1546 0.990039 25.1546H2.11264C5.0997 30.5997 10.7801 33.9712 17 33.9712C23.224 33.9712 28.9005 30.601 31.8876 25.1546H33.01C33.5559 25.1546 34.0001 24.7105 34.0001 24.1646V9.83422C34 9.28831 33.5559 8.84419 33.01 8.84419ZM0.996683 9.84087H21.5934L20.5967 10.8376H4.90003C4.62474 10.8376 4.40169 11.0607 4.40169 11.3359C4.40169 12.3891 3.54487 13.2459 2.49171 13.2459C2.21642 13.2459 1.99337 13.469 1.99337 13.7442V20.2546C1.99337 20.5298 2.21642 20.753 2.49171 20.753C3.54494 20.753 4.40169 21.6098 4.40169 22.6629C4.40169 22.9382 4.62474 23.1613 4.90003 23.1613H8.273L7.27632 24.158H0.996683V9.84087ZM22.5901 8.84419H6.48788C8.99301 5.62324 12.828 3.70894 16.9119 3.68236C19.8301 3.66342 22.6073 4.57479 24.9448 6.31799C24.9761 6.34131 24.9846 6.37241 24.9861 6.39434C24.9875 6.41307 24.9851 6.44915 24.9543 6.48005L22.5901 8.84419ZM9.26969 22.1646H5.35565C5.14674 20.9603 4.19438 20.0079 2.99005 19.7991V14.1998C4.19438 13.9909 5.14674 13.0385 5.35565 11.8342H13.6439C11.9562 12.9345 10.8381 14.8387 10.8381 16.9994C10.8381 18.0088 11.0845 18.9971 11.5529 19.8813L9.26969 22.1646ZM33.0033 24.158H31.5835C31.5834 24.158 31.5834 24.158 31.5833 24.158H16.567C16.2917 24.158 16.0687 24.3811 16.0687 24.6563C16.0687 24.9315 16.2917 25.1546 16.567 25.1546H27.5121C26.7683 26.1105 25.8993 26.961 24.9188 27.6901C24.698 27.8543 24.652 28.1665 24.8163 28.3874C24.9141 28.5189 25.0643 28.5884 25.2166 28.5884C25.3199 28.5884 25.4242 28.5563 25.5136 28.4899C26.7713 27.5546 27.8589 26.4333 28.7499 25.1546H30.7401C27.8641 29.9991 22.6737 32.9746 17 32.9746C11.33 32.9746 6.13631 29.9979 3.26022 25.1546H5.24322C5.33352 25.2844 5.42541 25.4136 5.5197 25.54C5.71073 25.7962 6.00349 25.9564 6.32296 25.9796C6.34974 25.9815 6.37651 25.9824 6.40316 25.9824C6.69565 25.9824 6.97718 25.8667 7.18549 25.6584L14.6584 18.1855C14.853 17.9909 14.853 17.6753 14.6584 17.4808C14.4638 17.2862 14.1483 17.2861 13.9536 17.4808L12.2974 19.137C11.994 18.4695 11.8349 17.7414 11.8349 16.9994C11.8349 14.1513 14.152 11.8342 17 11.8342C17.742 11.8342 18.4699 11.9933 19.1375 12.2968L15.4553 15.979C15.2607 16.1736 15.2607 16.4891 15.4553 16.6837C15.5526 16.781 15.6802 16.8297 15.8077 16.8297C15.9352 16.8297 16.0628 16.781 16.1602 16.6837L25.659 7.18484C25.8863 6.95753 26.0034 6.64311 25.9802 6.32238C25.957 6.00291 25.7968 5.71015 25.5405 5.51905C23.0533 3.66409 20.1029 2.68541 17.0012 2.68541C16.9695 2.68541 16.9372 2.68548 16.9054 2.68568C12.2625 2.71584 7.92018 5.01526 5.25159 8.84419H3.26015C6.13625 4.0007 11.3295 1.02427 17 1.02427C22.6738 1.02427 27.8641 3.99977 30.7402 8.84419H28.7568C28.6663 8.71415 28.5744 8.58491 28.4804 8.4588C28.2894 8.20265 27.9966 8.04239 27.6772 8.01926C27.3553 7.99614 27.042 8.11308 26.8146 8.34046L8.34098 26.814C8.11367 27.0413 7.99659 27.3557 8.01985 27.6765C8.04297 27.9959 8.20317 28.2887 8.45938 28.4798C10.9467 30.3347 13.8971 31.3136 16.9988 31.3134C17.0305 31.3134 17.0628 31.3134 17.0946 31.3132C19.3686 31.2983 21.6337 30.7296 23.6449 29.6682C23.8884 29.5398 23.9815 29.2383 23.8531 28.9949C23.7247 28.7515 23.4234 28.6584 23.1798 28.7868C21.3094 29.7737 19.2029 30.3027 17.0881 30.3165C14.1702 30.3369 11.3926 29.424 9.0552 27.6808C9.02391 27.6575 9.0154 27.6264 9.01387 27.6045C9.01248 27.5857 9.01487 27.5496 9.0457 27.5187L11.4098 25.1546H14.4432C14.7185 25.1546 14.9415 24.9315 14.9415 24.6563C14.9415 24.3811 14.7185 24.158 14.4432 24.158H12.4065L13.4031 23.1613H29.0999C29.3752 23.1613 29.5982 22.9382 29.5982 22.6629C29.5982 21.6098 30.4551 20.753 31.5082 20.753C31.7835 20.753 32.0066 20.5298 32.0066 20.2546V13.7442C32.0066 13.469 31.7835 13.2459 31.5082 13.2459C30.455 13.2459 29.5982 12.3891 29.5982 11.3359C29.5982 11.0607 29.3752 10.8376 29.0999 10.8376H25.7271L26.7237 9.84087H33.0033V24.158ZM14.8625 21.7021L21.7027 14.862C22.0062 15.5295 22.1652 16.2575 22.1652 16.9994C22.1652 19.8476 19.8482 22.1647 17 22.1647C16.2581 22.1646 15.5301 22.0056 14.8625 21.7021ZM23.1619 16.9994C23.1619 15.9901 22.9155 15.0019 22.4471 14.1174L24.7304 11.8342H28.6444C28.8533 13.0386 29.8057 13.9909 31.01 14.1998V19.7991C29.8057 20.008 28.8533 20.9604 28.6444 22.1647H20.3561C22.0438 21.0643 23.1619 19.1601 23.1619 16.9994Z" fill="#18DF96"/>
</g>
<defs>
<clipPath id="clip0">
<rect width="34" height="34" fill="white"/>
</clipPath>
</defs>
</svg>
