<svg width="34" height="34" viewBox="0 0 34 34" fill="none" xmlns="http://www.w3.org/2000/svg">
<g clip-path="url(#clip0)">
<path d="M29.5612 27.4479C31.3135 23.4064 30.5316 18.8983 27.5206 15.683L21.4211 9.16924C21.7465 8.89676 21.9588 8.49824 21.9787 8.04697C21.9978 7.61442 21.8438 7.20435 21.5451 6.8922C21.4078 6.7487 21.2485 6.63526 21.0747 6.55412C21.1866 6.33844 21.2502 6.09383 21.2502 5.83449C21.2502 5.28006 20.9608 4.79224 20.5253 4.5132L22.6824 1.85423C22.9614 1.51024 23.0164 1.04822 22.8259 0.648306C22.6354 0.248389 22.2419 0 21.7989 0H18.5481C18.3103 0 18.0808 0.070921 17.8844 0.2052L17.1708 0.693022C17.067 0.764075 16.9327 0.764075 16.8288 0.693088L16.1152 0.2052C15.9189 0.070921 15.6894 0 15.4516 0H12.2007C11.7578 0 11.3643 0.248389 11.1738 0.64824C10.9833 1.04809 11.0383 1.51017 11.3174 1.85416L13.4744 4.51313C13.039 4.79217 12.7495 5.28 12.7495 5.83443C12.7495 6.09655 12.8145 6.34361 12.9286 6.56102C12.411 6.80297 12.0473 7.30831 12.021 7.90613C12.0019 8.33869 12.1559 8.74869 12.4546 9.06083C12.5042 9.11271 12.557 9.16035 12.6121 9.20433L9.14496 12.9069C8.95714 13.1074 8.96749 13.4224 9.16804 13.6102C9.26404 13.7 9.38618 13.7445 9.50805 13.7445C9.64087 13.7445 9.77343 13.6917 9.87135 13.587L13.6563 9.54507H16.7647C17.019 9.54507 17.236 9.35015 17.2631 9.09732C17.2923 8.82412 17.0946 8.57891 16.8213 8.54959C16.7841 8.54554 16.7472 8.54581 16.7113 8.54992H13.588C13.4301 8.54992 13.2829 8.48703 13.1737 8.37285C13.0644 8.25874 13.0082 8.10861 13.0152 7.94991C13.0285 7.64838 13.3006 7.40305 13.6217 7.40305H14.3181H19.6817H20.4118C20.5698 7.40305 20.7169 7.46594 20.8262 7.58012C20.9354 7.69429 20.9917 7.84443 20.9846 8.00312C20.9714 8.30465 20.6993 8.54999 20.3782 8.54999H18.9643C18.9632 8.54986 18.9622 8.54972 18.961 8.54959C18.6888 8.51668 18.4402 8.71087 18.4072 8.98368C18.39 9.12505 18.4352 9.26975 18.5297 9.37636C18.6241 9.48291 18.7623 9.54514 18.9047 9.54514H20.3782C20.3886 9.54514 20.3989 9.54461 20.4092 9.54441L26.7944 16.3631C29.5299 19.2844 30.2403 23.3802 28.6483 27.052C27.0563 30.7238 23.5811 33.0048 19.579 33.0048H14.4872C13.9172 33.0048 13.3492 32.9591 12.7989 32.8688C12.5282 32.8243 12.2718 33.0082 12.2273 33.2794C12.1829 33.5506 12.3667 33.8065 12.6379 33.8509C13.2412 33.9498 13.8634 34 14.4872 34H19.579C23.984 33.9999 27.8089 31.4894 29.5612 27.4479ZM12.0722 1.07629C12.0898 1.03927 12.1264 0.995149 12.2007 0.995149H15.4516C15.4882 0.995149 15.5235 1.0061 15.5536 1.02673L16.2672 1.51462C16.7123 1.81887 17.2874 1.81887 17.7324 1.51462L18.446 1.02673C18.4762 1.0061 18.5115 0.995149 18.5481 0.995149H21.7989C21.8732 0.995149 21.9099 1.03927 21.9275 1.07629C21.9452 1.11337 21.9564 1.16957 21.9095 1.22728L19.4446 4.26587H14.5551L12.0902 1.22728C12.0433 1.16957 12.0545 1.11331 12.0722 1.07629ZM14.318 6.4079C14.0018 6.4079 13.7445 6.15062 13.7445 5.83443C13.7445 5.51823 14.0017 5.26096 14.318 5.26096H19.6816C19.9978 5.26096 20.2551 5.51823 20.2551 5.83443C20.2551 6.15062 19.9978 6.4079 19.6816 6.4079H14.318Z" fill="#18DF96"/>
<path d="M4.08896 23.88C4.09433 23.88 4.09977 23.8799 4.10521 23.8797C4.37987 23.8709 4.59542 23.6411 4.5866 23.3665C4.50274 20.7504 5.43121 18.3287 7.27177 16.3632L8.05668 15.525C8.2445 15.3244 8.23415 15.0094 8.03359 14.8216C7.83304 14.6339 7.51811 14.6442 7.33029 14.8447L6.54532 15.683C4.54958 17.8142 3.50069 20.5543 3.59191 23.3984C3.60054 23.6676 3.82146 23.88 4.08896 23.88Z" fill="#18DF96"/>
<path d="M10.0431 24.8752H1.27725C0.586753 24.8752 0.0250244 25.4369 0.0250244 26.1273V27.328C0.0250244 27.6115 0.12089 27.8725 0.280313 28.0827C0.120824 28.2928 0.0250244 28.5538 0.0250244 28.8372V30.0379C0.0250244 30.3215 0.12089 30.5824 0.280313 30.7926C0.120824 31.0027 0.0250244 31.2637 0.0250244 31.5472V32.7479C0.0250244 33.4384 0.586753 34.0001 1.27725 34.0001H10.0431C10.7335 34.0001 11.2953 33.4384 11.2953 32.7479V31.5472C11.2953 31.2637 11.1994 31.0028 11.04 30.7926C11.1995 30.5825 11.2953 30.3215 11.2953 30.0379V28.8372C11.2953 28.5538 11.1995 28.2928 11.04 28.0827C11.1995 27.8725 11.2953 27.6115 11.2953 27.328V26.1273C11.2952 25.4369 10.7335 24.8752 10.0431 24.8752ZM1.02017 26.1273C1.02017 25.9856 1.13548 25.8703 1.27725 25.8703H10.0431C10.1848 25.8703 10.3001 25.9856 10.3001 26.1273V27.328C10.3001 27.4698 10.1848 27.5851 10.0431 27.5851H1.27725C1.13548 27.5851 1.02017 27.4698 1.02017 27.328V26.1273ZM10.3001 28.8372V30.0379C10.3001 30.1797 10.1848 30.295 10.043 30.295H1.27725C1.13548 30.295 1.02017 30.1797 1.02017 30.0379V28.8372C1.02017 28.6955 1.13548 28.5802 1.27725 28.5802H10.0431C10.1848 28.5802 10.3001 28.6955 10.3001 28.8372ZM10.3001 32.7478C10.3001 32.8896 10.1848 33.0049 10.043 33.0049H1.27725C1.13548 33.0049 1.02017 32.8896 1.02017 32.7478V31.5471C1.02017 31.4054 1.13548 31.2901 1.27725 31.2901H10.0431C10.1848 31.2901 10.3001 31.4054 10.3001 31.5471V32.7478H10.3001Z" fill="#18DF96"/>
<path d="M33.9751 26.1273C33.9751 25.4369 33.4133 24.8752 32.7229 24.8752H31.7537C31.4788 24.8752 31.2561 25.0979 31.2561 25.3727C31.2561 25.6476 31.4788 25.8703 31.7537 25.8703H32.7229C32.8646 25.8703 32.9799 25.9856 32.9799 26.1273V27.328C32.9799 27.4697 32.8646 27.585 32.7229 27.585H30.9122C30.6373 27.585 30.4146 27.8077 30.4146 28.0826C30.4146 28.3574 30.6373 28.5802 30.9122 28.5802H32.7229C32.8646 28.5802 32.9799 28.6955 32.9799 28.8372V30.0379C32.9799 30.1797 32.8646 30.295 32.7229 30.295H29.2973C29.0224 30.295 28.7997 30.5177 28.7997 30.7926C28.7997 31.0674 29.0224 31.2902 29.2973 31.2902H32.7229C32.8646 31.2902 32.9799 31.4055 32.9799 31.5472V32.7479C32.9799 32.8896 32.8646 33.0049 32.7229 33.0049H26.3614C26.0865 33.0049 25.8638 33.2276 25.8638 33.5024C25.8638 33.7773 26.0865 34 26.3614 34H32.7229C33.4133 34 33.9751 33.4383 33.9751 32.7479V31.5472C33.9751 31.2636 33.8793 31.0027 33.7198 30.7925C33.8793 30.5824 33.9751 30.3214 33.9751 30.0379V28.8372C33.9751 28.5536 33.8793 28.2927 33.7198 28.0825C33.8793 27.8724 33.9751 27.6114 33.9751 27.3279V26.1273Z" fill="#18DF96"/>
<path d="M16.9585 24.326C17.2333 24.326 17.4561 24.1033 17.4561 23.8284V23.3214C18.4911 23.105 19.0961 22.2457 19.2311 21.4424C19.4067 20.3983 18.8607 19.4906 17.8403 19.1299C17.714 19.0853 17.5849 19.0386 17.4561 18.9901V16.877C17.7634 16.9605 17.946 17.1144 17.9634 17.1296C18.1656 17.3124 18.4777 17.2986 18.6628 17.0979C18.8492 16.8958 18.8365 16.581 18.6345 16.3947C18.6082 16.3705 18.1714 15.9774 17.456 15.8606V15.4448C17.456 15.1699 17.2333 14.9472 16.9584 14.9472C16.6836 14.9472 16.4608 15.1699 16.4608 15.4448V15.8977C16.4005 15.9116 16.3394 15.9271 16.2771 15.9459C15.6036 16.1488 15.1004 16.7247 14.9639 17.449C14.8393 18.1106 15.052 18.7491 15.5191 19.1155C15.7592 19.3038 16.0564 19.4763 16.4608 19.6576V22.3654C16.1158 22.3356 15.8885 22.2448 15.5072 21.9954C15.2773 21.845 14.9689 21.9095 14.8185 22.1395C14.668 22.3694 14.7325 22.6778 14.9625 22.8283C15.5472 23.2107 15.9503 23.33 16.4607 23.3625V23.8284C16.4609 24.1033 16.6837 24.326 16.9585 24.326ZM16.1334 18.3324C15.9623 18.1984 15.8872 17.9239 15.942 17.6333C15.9898 17.3797 16.1512 17.078 16.461 16.9382V18.5465C16.3386 18.4776 16.2276 18.4063 16.1334 18.3324ZM17.5087 20.0682C18.3358 20.3605 18.285 21.0676 18.2497 21.2775C18.1829 21.6755 17.9132 22.0974 17.4561 22.282V20.0493C17.4738 20.0556 17.4907 20.0618 17.5087 20.0682Z" fill="#18DF96"/>
<path d="M22.7749 22.1051C23.0347 22.195 23.3179 22.0566 23.4073 21.7968C23.6503 21.0911 23.7736 20.3524 23.7736 19.6009C23.7736 15.8842 20.7498 12.8603 17.033 12.8603C13.3162 12.8603 10.2924 15.8841 10.2924 19.6009C10.2924 23.3177 13.3162 26.3415 17.033 26.3415C19.0897 26.3415 21.0078 25.4197 22.2955 23.8125C22.4674 23.5981 22.4328 23.285 22.2184 23.1131C22.0039 22.9413 21.6908 22.9759 21.5189 23.1903C20.4211 24.5605 18.786 25.3464 17.033 25.3464C13.865 25.3464 11.2875 22.769 11.2875 19.6009C11.2875 16.4329 13.8649 13.8555 17.033 13.8555C20.201 13.8555 22.7785 16.4329 22.7785 19.6009C22.7785 20.2419 22.6735 20.8716 22.4665 21.4727C22.3769 21.7325 22.5151 22.0157 22.7749 22.1051Z" fill="#18DF96"/>
</g>
<defs>
<clipPath id="clip0">
<rect width="34" height="34" fill="white"/>
</clipPath>
</defs>
</svg>
