<svg width="34" height="34" viewBox="0 0 34 34" fill="none" xmlns="http://www.w3.org/2000/svg">
<path d="M17.4439 18.5557C17.381 18.5421 17.3164 18.5397 17.2527 18.5492C16.6141 18.4749 16.1324 17.9346 16.1313 17.2919C16.1313 16.9839 15.8816 16.7342 15.5736 16.7342C15.2656 16.7342 15.0159 16.9839 15.0159 17.2919C15.0176 18.3651 15.7354 19.3051 16.7702 19.5892V20.1469C16.7702 20.4548 17.0199 20.7046 17.3279 20.7046C17.6359 20.7046 17.8856 20.4548 17.8856 20.1469V19.6229C19.0799 19.3729 19.8917 18.2605 19.7662 17.0468C19.6404 15.8331 18.6178 14.9108 17.3976 14.9105C16.6983 14.9105 16.1313 14.3436 16.1313 13.6443C16.1313 12.945 16.6983 12.378 17.3976 12.378C18.0969 12.378 18.6638 12.945 18.6638 13.6443C18.6638 13.9523 18.9135 14.202 19.2215 14.202C19.5295 14.202 19.7792 13.9523 19.7792 13.6443C19.7776 12.5174 18.9882 11.5456 17.8856 11.313V10.8054C17.8856 10.4974 17.6359 10.2477 17.3279 10.2477C17.0199 10.2477 16.7702 10.4974 16.7702 10.8054V11.347C15.6194 11.6613 14.8787 12.7786 15.0372 13.961C15.1957 15.1434 16.2046 16.0259 17.3976 16.0257C18.0876 16.0257 18.6505 16.5782 18.663 17.268C18.6758 17.9577 18.1334 18.5307 17.4439 18.5557Z" fill="#18DF96"/>
<path d="M9.31041 15.511C9.31041 19.9775 12.9311 23.5981 17.3976 23.5981C21.8641 23.5981 25.4847 19.9775 25.4847 15.511C25.4847 11.0445 21.8641 7.4238 17.3976 7.4238C12.9333 7.4287 9.31559 11.0467 9.31041 15.511ZM17.3976 8.53919C21.2481 8.53919 24.3693 11.6605 24.3693 15.511C24.3693 19.3615 21.2481 22.4827 17.3976 22.4827C13.5471 22.4827 10.4258 19.3615 10.4258 15.511C10.4302 11.6624 13.549 8.54355 17.3976 8.53919Z" fill="#18DF96"/>
<path d="M28.234 24.9731L23.8653 27.0372C23.2621 25.9153 22.1051 25.2013 20.8317 25.1653L16.7988 25.0545C16.1602 25.0362 15.5336 24.8745 14.9658 24.5812L14.5554 24.3685C12.4543 23.2733 9.9498 23.276 7.85081 24.3756L7.87641 23.4459C7.88485 23.1379 7.64222 22.8814 7.33423 22.873L2.91186 22.7513C2.60387 22.7428 2.34763 22.9854 2.33918 23.2934L2.07204 32.9981C2.0636 33.3061 2.30623 33.5626 2.61422 33.5711L7.03659 33.6928H7.05184C7.35411 33.6928 7.60137 33.4524 7.60954 33.1504L7.62234 32.6861L8.77123 32.0709C9.22218 31.8283 9.74938 31.7706 10.242 31.91L17.1027 33.8355C17.1146 33.839 17.1266 33.8418 17.1389 33.8445C17.6348 33.9482 18.1402 34.0003 18.6467 34C19.7196 34.0005 20.78 33.7693 21.7551 33.3217C21.7791 33.3108 21.8022 33.298 21.8243 33.2835L31.7716 26.8493C32.0195 26.6889 32.0995 26.3635 31.9544 26.1064C31.2159 24.7961 29.5779 24.2969 28.234 24.9731ZM3.20242 32.4715L3.43879 23.8816L6.74603 23.9726L6.50967 32.5627L3.20242 32.4715ZM21.2527 32.3255C20.0412 32.8723 18.6881 33.0232 17.3859 32.7571L10.5437 30.8365C9.77362 30.6189 8.94932 30.7091 8.24485 31.0879L7.65774 31.4024L7.81486 25.6911C9.67531 24.4538 12.0613 24.3266 14.0427 25.3589L14.4531 25.5716C15.1703 25.942 15.9614 26.1462 16.7683 26.1696L20.8015 26.2804C21.9343 26.3131 22.8964 27.1197 23.1262 28.2297L17.1187 28.0638C16.8107 28.0554 16.5545 28.2983 16.5458 28.606C16.5373 28.914 16.7802 29.1705 17.088 29.1789L23.7177 29.3614H23.7332C24.0352 29.3611 24.2822 29.1207 24.2904 28.8189C24.2972 28.5766 24.2792 28.334 24.2365 28.0954L28.7174 25.9782C28.7217 25.9763 28.7261 25.9741 28.7304 25.9719C29.366 25.6503 30.1345 25.7579 30.6573 26.2418L21.2527 32.3255Z" fill="#18DF96"/>
<path d="M17.9553 5.85583V0.557698C17.9553 0.249711 17.7056 0 17.3976 0C17.0896 0 16.8399 0.249711 16.8399 0.557698V5.85583C16.8399 6.16382 17.0896 6.41353 17.3976 6.41353C17.7056 6.41353 17.9553 6.16382 17.9553 5.85583Z" fill="#18DF96"/>
<path d="M22.138 5.85582V3.34618C22.138 3.03819 21.8883 2.78848 21.5803 2.78848C21.2723 2.78848 21.0226 3.03819 21.0226 3.34618V5.85582C21.0226 6.16381 21.2723 6.41352 21.5803 6.41352C21.8883 6.41352 22.138 6.16381 22.138 5.85582Z" fill="#18DF96"/>
<path d="M13.7725 5.85582V3.34618C13.7725 3.03819 13.5228 2.78848 13.2148 2.78848C12.9069 2.78848 12.6571 3.03819 12.6571 3.34618V5.85582C12.6571 6.16381 12.9069 6.41352 13.2148 6.41352C13.5228 6.41352 13.7725 6.16381 13.7725 5.85582Z" fill="#18DF96"/>
</svg>
