<svg width="34" height="34" viewBox="0 0 34 34" fill="none" xmlns="http://www.w3.org/2000/svg">
<path d="M30.2812 27.625H3.71875C3.01451 27.6242 2.33934 27.3441 1.84137 26.8461C1.3434 26.3482 1.06329 25.673 1.0625 24.9688V9.03125C1.06329 8.32701 1.3434 7.65184 1.84137 7.15387C2.33934 6.6559 3.01451 6.37579 3.71875 6.375H30.2812C30.9855 6.37579 31.6607 6.6559 32.1586 7.15387C32.6566 7.65184 32.9367 8.32701 32.9375 9.03125V24.9688C32.9367 25.673 32.6566 26.3482 32.1586 26.8461C31.6607 27.3441 30.9855 27.6242 30.2812 27.625ZM31.875 9.03125C31.8745 8.60871 31.7064 8.20362 31.4077 7.90484C31.1089 7.60606 30.7038 7.43799 30.2812 7.4375H3.71875C3.29621 7.43799 2.89112 7.60606 2.59234 7.90484C2.29356 8.20362 2.12549 8.60871 2.125 9.03125V24.9688C2.12549 25.3913 2.29356 25.7964 2.59234 26.0952C2.89112 26.3939 3.29621 26.562 3.71875 26.5625H30.2812C30.7038 26.562 31.1089 26.3939 31.4077 26.0952C31.7064 25.7964 31.8745 25.3913 31.875 24.9688V9.03125Z" fill="#18DF96"/>
<path d="M28.1562 14.875H26.0312C25.6087 14.8745 25.2036 14.7064 24.9048 14.4077C24.6061 14.1089 24.438 13.7038 24.4375 13.2812V11.1562C24.438 10.7337 24.6061 10.3286 24.9048 10.0298C25.2036 9.73106 25.6087 9.56299 26.0312 9.5625H28.1562C28.5788 9.56299 28.9839 9.73106 29.2827 10.0298C29.5814 10.3286 29.7495 10.7337 29.75 11.1562V13.2812C29.7495 13.7038 29.5814 14.1089 29.2827 14.4077C28.9839 14.7064 28.5788 14.8745 28.1562 14.875ZM28.1562 10.625H26.0312C25.8904 10.6252 25.7554 10.6812 25.6558 10.7808C25.5562 10.8804 25.5002 11.0154 25.5 11.1562V11.6875H26.0312C26.1721 11.6875 26.3073 11.7435 26.4069 11.8431C26.5065 11.9427 26.5625 12.0779 26.5625 12.2188C26.5625 12.3596 26.5065 12.4948 26.4069 12.5944C26.3073 12.694 26.1721 12.75 26.0312 12.75H25.5V13.2812C25.5002 13.4221 25.5562 13.5571 25.6558 13.6567C25.7554 13.7563 25.8904 13.8123 26.0312 13.8125H28.1562C28.2971 13.8123 28.4321 13.7563 28.5317 13.6567C28.6313 13.5571 28.6873 13.4221 28.6875 13.2812V12.75H28.1562C28.0154 12.75 27.8802 12.694 27.7806 12.5944C27.681 12.4948 27.625 12.3596 27.625 12.2188C27.625 12.0779 27.681 11.9427 27.7806 11.8431C27.8802 11.7435 28.0154 11.6875 28.1562 11.6875H28.6875V11.1562C28.6873 11.0154 28.6313 10.8804 28.5317 10.7808C28.4321 10.6812 28.2971 10.6252 28.1562 10.625Z" fill="#18DF96"/>
<path d="M29.2188 22.3125H21.25C21.1091 22.3125 20.974 22.2565 20.8743 22.1569C20.7747 22.0573 20.7188 21.9221 20.7188 21.7812C20.7188 21.6404 20.7747 21.5052 20.8743 21.4056C20.974 21.306 21.1091 21.25 21.25 21.25H29.2188C29.3596 21.25 29.4948 21.306 29.5944 21.4056C29.694 21.5052 29.75 21.6404 29.75 21.7812C29.75 21.9221 29.694 22.0573 29.5944 22.1569C29.4948 22.2565 29.3596 22.3125 29.2188 22.3125Z" fill="#18DF96"/>
<path d="M29.2188 24.4375L18.5938 24.4379C18.4529 24.4379 18.3177 24.3819 18.2181 24.2823C18.1185 24.1827 18.0625 24.0475 18.0625 23.9066C18.0625 23.7658 18.1185 23.6306 18.2181 23.531C18.3177 23.4314 18.4529 23.3754 18.5938 23.3754L29.2188 23.375C29.3596 23.375 29.4948 23.431 29.5944 23.5306C29.694 23.6302 29.75 23.7654 29.75 23.9062C29.75 24.0471 29.694 24.1823 29.5944 24.2819C29.4948 24.3815 29.3596 24.4375 29.2188 24.4375Z" fill="#18DF96"/>
<path d="M8.5 25.5C8.03374 25.5004 7.57571 25.3772 7.17254 25.143C6.76877 25.3766 6.31061 25.4997 5.84415 25.5C5.37769 25.5003 4.91937 25.3777 4.5153 25.1447C4.11124 24.9116 3.77567 24.5763 3.54235 24.1724C3.30904 23.7684 3.1862 23.3102 3.1862 22.8437C3.1862 22.3773 3.30904 21.9191 3.54235 21.5151C3.77567 21.1112 4.11124 20.7759 4.5153 20.5428C4.91937 20.3097 5.37769 20.1872 5.84415 20.1875C6.31061 20.1878 6.76877 20.3109 7.17254 20.5445C7.52533 20.3408 7.92026 20.2209 8.32678 20.1943C8.7333 20.1676 9.14051 20.2348 9.51689 20.3907C9.89328 20.5466 10.2288 20.787 10.4974 21.0933C10.766 21.3996 10.9605 21.7636 11.0659 22.1571C11.1713 22.5506 11.1848 22.9631 11.1053 23.3627C11.0257 23.7622 10.8554 24.1381 10.6073 24.4613C10.3593 24.7845 10.0402 25.0462 9.67476 25.2264C9.30935 25.4065 8.90739 25.5001 8.5 25.5ZM4.24999 22.8437C4.24988 23.0941 4.30879 23.341 4.42194 23.5644C4.5351 23.7878 4.69931 23.9813 4.90127 24.1293C5.10322 24.2774 5.33722 24.3757 5.58428 24.4164C5.83135 24.457 6.08452 24.4389 6.32327 24.3634C6.01117 23.9181 5.84375 23.3875 5.84375 22.8438C5.84375 22.3 6.01117 21.7695 6.32327 21.3242C6.08453 21.2486 5.83135 21.2305 5.58427 21.2711C5.33719 21.3118 5.10317 21.4101 4.90121 21.5581C4.69925 21.7061 4.53503 21.8997 4.42188 22.1231C4.30873 22.3464 4.24985 22.5933 4.24999 22.8437ZM8.5 21.25C8.18478 21.25 7.87665 21.3435 7.61456 21.5186C7.35247 21.6937 7.14819 21.9426 7.02756 22.2338C6.90694 22.5251 6.87537 22.8455 6.93687 23.1547C6.99836 23.4638 7.15016 23.7478 7.37305 23.9707C7.59594 24.1936 7.87991 24.3454 8.18907 24.4069C8.49823 24.4684 8.81868 24.4368 9.1099 24.3162C9.40112 24.1956 9.65003 23.9913 9.82515 23.7292C10.0003 23.4671 10.0937 23.159 10.0937 22.8437C10.0933 22.4212 9.92519 22.0161 9.62641 21.7173C9.32763 21.4186 8.92254 21.2505 8.5 21.25Z" fill="#18DF96"/>
<path d="M5.55011 14.8189C5.48772 14.8502 5.41979 14.8688 5.35019 14.8738C5.28059 14.8788 5.21069 14.87 5.14449 14.8479C5.07829 14.8259 5.01709 14.791 4.96439 14.7452C4.91169 14.6995 4.86853 14.6438 4.83737 14.5814C4.81333 14.5333 4.25001 13.3932 4.25001 12.2188C4.25001 11.0443 4.81333 9.90417 4.83737 9.85616C4.90094 9.73121 5.01131 9.63646 5.14443 9.59254C5.27756 9.54862 5.42264 9.5591 5.54808 9.6217C5.67351 9.68429 5.76912 9.79392 5.81406 9.9267C5.85901 10.0595 5.84966 10.2046 5.78804 10.3306C5.78326 10.3402 5.31251 11.2997 5.31251 12.2188C5.31251 13.1378 5.78326 14.0973 5.78764 14.1062C5.85065 14.2322 5.86103 14.3781 5.81648 14.5117C5.77194 14.6454 5.67612 14.7559 5.55011 14.8189Z" fill="#18DF96"/>
<path d="M9.93816 13.6569C9.88883 13.7063 9.83026 13.7454 9.76581 13.7721C9.70135 13.7988 9.63227 13.8125 9.5625 13.8125C9.49273 13.8125 9.42365 13.7988 9.35919 13.7721C9.29474 13.7454 9.23617 13.7063 9.18684 13.6569C9.11651 13.5867 8.5 12.9492 8.5 12.2188C8.5 11.4883 9.11651 10.8508 9.18684 10.7806C9.28628 10.6808 9.4213 10.6245 9.5622 10.6243C9.7031 10.624 9.83834 10.6797 9.93816 10.7791C10.038 10.8786 10.0942 11.0136 10.0945 11.1545C10.0948 11.2954 10.0391 11.4306 9.93962 11.5305C9.78755 11.685 9.5625 12.0106 9.5625 12.2188C9.5625 12.4269 9.78755 12.7525 9.93816 12.9056C9.9875 12.9549 10.0266 13.0135 10.0533 13.078C10.08 13.1424 10.0938 13.2115 10.0938 13.2813C10.0938 13.351 10.08 13.4201 10.0533 13.4846C10.0266 13.549 9.9875 13.6076 9.93816 13.6569Z" fill="#18DF96"/>
<path d="M29.2188 18.0625H26.0312C25.8904 18.0625 25.7552 18.0065 25.6556 17.9069C25.556 17.8073 25.5 17.6721 25.5 17.5312C25.5 17.3904 25.556 17.2552 25.6556 17.1556C25.7552 17.056 25.8904 17 26.0312 17H29.2188C29.3596 17 29.4948 17.056 29.5944 17.1556C29.694 17.2552 29.75 17.3904 29.75 17.5312C29.75 17.6721 29.694 17.8073 29.5944 17.9069C29.4948 18.0065 29.3596 18.0625 29.2188 18.0625Z" fill="#18DF96"/>
<path d="M22.8438 18.0625H19.6562C19.5154 18.0625 19.3802 18.0065 19.2806 17.9069C19.181 17.8073 19.125 17.6721 19.125 17.5312C19.125 17.3904 19.181 17.2552 19.2806 17.1556C19.3802 17.056 19.5154 17 19.6562 17H22.8438C22.9846 17 23.1198 17.056 23.2194 17.1556C23.319 17.2552 23.375 17.3904 23.375 17.5312C23.375 17.6721 23.319 17.8073 23.2194 17.9069C23.1198 18.0065 22.9846 18.0625 22.8438 18.0625Z" fill="#18DF96"/>
<path d="M16.4688 18.0625H13.2812C13.1404 18.0625 13.0052 18.0065 12.9056 17.9069C12.806 17.8073 12.75 17.6721 12.75 17.5312C12.75 17.3904 12.806 17.2552 12.9056 17.1556C13.0052 17.056 13.1404 17 13.2812 17H16.4688C16.6096 17 16.7448 17.056 16.8444 17.1556C16.944 17.2552 17 17.3904 17 17.5312C17 17.6721 16.944 17.8073 16.8444 17.9069C16.7448 18.0065 16.6096 18.0625 16.4688 18.0625Z" fill="#18DF96"/>
<path d="M10.0938 18.0625H6.90625C6.76535 18.0625 6.63023 18.0065 6.5306 17.9069C6.43097 17.8073 6.375 17.6721 6.375 17.5312C6.375 17.3904 6.43097 17.2552 6.5306 17.1556C6.63023 17.056 6.76535 17 6.90625 17H10.0938C10.2346 17 10.3698 17.056 10.4694 17.1556C10.569 17.2552 10.625 17.3904 10.625 17.5312C10.625 17.6721 10.569 17.8073 10.4694 17.9069C10.3698 18.0065 10.2346 18.0625 10.0938 18.0625Z" fill="#18DF96"/>
<path d="M7.06184 10.2493C7.16147 10.1497 7.2966 10.0937 7.4375 10.0937C7.5784 10.0937 7.71353 10.1497 7.81316 10.2493C7.91279 10.349 7.96877 10.4841 7.96877 10.625C7.96877 10.7659 7.91279 10.901 7.81316 11.0006C7.80944 11.0044 7.4375 11.4124 7.4375 12.2187C7.4375 13.0251 7.80353 13.4263 7.81907 13.4429L7.81316 13.4368C7.91279 13.5365 7.96877 13.6716 7.96877 13.8125C7.96877 13.9534 7.91279 14.0885 7.81316 14.1881C7.71353 14.2878 7.5784 14.3437 7.4375 14.3437C7.2966 14.3437 7.16147 14.2878 7.06184 14.1881C6.99152 14.118 6.375 13.4652 6.375 12.2187C6.375 10.9722 6.99152 10.3195 7.06184 10.2493Z" fill="#18DF96"/>
</svg>
