<svg width="34" height="34" viewBox="0 0 34 34" fill="none" xmlns="http://www.w3.org/2000/svg">
<g clip-path="url(#clip0)">
<path d="M28.889 11.3616C28.8886 11.3616 28.8882 11.3616 28.8878 11.3616H0.486794C0.218262 11.3613 0.000284288 11.5788 2.77943e-07 11.8473C2.77943e-07 11.8476 2.77943e-07 11.8481 2.77943e-07 11.8484V25.4809C-0.000283732 25.7494 0.217126 25.9674 0.485658 25.9677C0.486013 25.9677 0.486439 25.9677 0.486794 25.9677H19.7995C20.0683 25.9677 20.2863 25.7497 20.2863 25.4809C20.2863 25.2121 20.0683 24.9941 19.7995 24.9941H0.973587V12.3352H28.401V13.5525C28.4007 13.821 28.6181 14.039 28.8867 14.0393C28.887 14.0393 28.8875 14.0393 28.8878 14.0393C29.1563 14.0396 29.3743 13.8222 29.3746 13.5536C29.3746 13.5533 29.3746 13.5528 29.3746 13.5525V11.8484C29.3749 11.5799 29.1575 11.362 28.889 11.3616Z" fill="#18DF96"/>
<path d="M25.5865 9.10147L2.86565 3.98929C2.73955 3.9611 2.60741 3.98396 2.49814 4.05291C2.38901 4.12242 2.31183 4.23226 2.28343 4.3585L1.14739 9.47068C1.08902 9.73325 1.2546 9.9934 1.51717 10.0518C1.77974 10.1101 2.03989 9.94455 2.09825 9.68198L3.12807 5.04637L25.3729 10.0512C25.4081 10.0594 25.4441 10.0634 25.4802 10.0631C25.7491 10.0626 25.9666 9.8443 25.9662 9.57548C25.9658 9.3482 25.8081 9.15152 25.5865 9.10147Z" fill="#18DF96"/>
<path d="M22.8276 6.28465L9.19511 0.60444C8.95817 0.505675 8.68517 0.607138 8.57029 0.83676L7.43425 3.10884C7.30595 3.34613 7.39427 3.64257 7.63163 3.77087C7.86892 3.89917 8.16536 3.81084 8.29366 3.57348C8.2987 3.56418 8.30346 3.55467 8.30786 3.54501V3.54615L9.23998 1.68077L22.4516 7.18545C22.7004 7.28926 22.9862 7.17182 23.09 6.92303C23.1938 6.67438 23.0764 6.38852 22.8276 6.28465Z" fill="#18DF96"/>
<path d="M23.1718 13.6337H18.6635C18.3946 13.6337 18.1767 13.8517 18.1767 14.1205C18.1767 14.3893 18.3946 14.6073 18.6635 14.6073H23.1718C23.4406 14.6073 23.6586 14.3893 23.6586 14.1205C23.6586 13.8517 23.4406 13.6337 23.1718 13.6337Z" fill="#18DF96"/>
<path d="M14.1193 13.6661C11.3586 13.6661 9.1207 15.904 9.1207 18.6647C9.12354 21.4241 11.3598 23.6604 14.1193 23.6632C16.8799 23.6632 19.1179 21.4253 19.1179 18.6647C19.1179 15.904 16.8799 13.6661 14.1193 13.6661ZM14.1193 22.7544C11.8605 22.7544 10.0295 20.9234 10.0295 18.6647C10.032 16.407 11.8616 14.5774 14.1193 14.5749C16.378 14.5749 18.209 16.4059 18.209 18.6647C18.209 20.9234 16.378 22.7544 14.1193 22.7544Z" fill="#18DF96"/>
<path d="M27.7518 15.2565C24.7413 15.2565 21.5035 15.9677 21.5035 17.5286V31.1611C21.5035 32.722 24.7413 33.4332 27.7518 33.4332C30.7623 33.4332 34 32.722 34 31.1611V17.5286C34 15.9677 30.7623 15.2565 27.7518 15.2565ZM32.8639 31.1526C32.7782 31.4678 31.0747 32.2971 27.7518 32.2971C24.4288 32.2971 22.7254 31.4678 22.6396 31.1611V30.2682C23.8483 30.8771 25.8449 31.1611 27.7518 31.1611C29.6586 31.1611 31.6558 30.8743 32.8639 30.2676V31.1526ZM32.8639 28.8805C32.7782 29.1958 31.0747 30.0251 27.7518 30.0251C24.4288 30.0251 22.7254 29.1958 22.6396 28.889V27.9961C23.8483 28.605 25.8449 28.889 27.7518 28.889C29.6586 28.889 31.6558 28.6022 32.8639 27.9955V28.8805ZM32.8639 26.6084C32.7782 26.9237 31.0747 27.753 27.7518 27.753C24.4288 27.753 22.7254 26.9237 22.6396 26.6169V25.724C23.8483 26.3329 25.8449 26.6169 27.7518 26.6169C29.6586 26.6169 31.6558 26.3301 32.8639 25.7234V26.6084ZM32.8639 24.3363C32.7782 24.6516 31.0747 25.4809 27.7518 25.4809C24.4288 25.4809 22.7254 24.6516 22.6396 24.3449V23.4519C23.8483 24.0608 25.8449 24.3449 27.7518 24.3449C29.6586 24.3449 31.6558 24.058 32.8639 23.4514V24.3363ZM32.8639 22.0643C32.7782 22.3795 31.0747 23.2088 27.7518 23.2088C24.4288 23.2088 22.7254 22.3795 22.6396 22.0728V21.1798C23.8483 21.7859 25.8449 22.0728 27.7518 22.0728C29.6586 22.0728 31.6558 21.7859 32.8639 21.1793V22.0643ZM32.8639 19.7922C32.7782 20.1074 31.0747 20.9367 27.7518 20.9367C24.4288 20.9367 22.7254 20.1074 22.6396 19.8007V18.9078C23.8483 19.5138 25.8449 19.8007 27.7518 19.8007C29.6586 19.8007 31.6558 19.5138 32.8639 18.9072V19.7922ZM27.7518 18.6647C24.434 18.6647 22.731 17.8376 22.6396 17.5388V17.5354C22.731 17.219 24.434 16.3926 27.7518 16.3926C31.0463 16.3926 32.7503 17.2071 32.8639 17.5286C32.7503 17.8501 31.0463 18.6647 27.7518 18.6647Z" fill="#18DF96"/>
<path d="M9.57512 22.7215H5.28146L3.24567 20.4948V16.8027L5.49389 14.6073H9.57512C9.84394 14.6073 10.0619 14.3893 10.0619 14.1205C10.0619 13.8517 9.84394 13.6337 9.57512 13.6337H5.29622C5.16899 13.6334 5.04665 13.683 4.95541 13.7717L2.41806 16.2466C2.32328 16.3574 2.2713 16.4984 2.27152 16.6442V20.684C2.27152 20.8055 2.31689 20.9225 2.39875 21.0123L4.70662 23.5366C4.79885 23.6375 4.92935 23.6951 5.06618 23.695H9.57512C9.84394 23.695 10.0619 23.4771 10.0619 23.2083C10.0619 22.9394 9.84401 22.7215 9.57512 22.7215Z" fill="#18DF96"/>
<path d="M14.4033 18.0967H13.8353C13.6586 18.0967 13.5513 17.9978 13.5513 17.9546C13.5513 17.9115 13.6586 17.8126 13.8353 17.8126H15.2553C15.569 17.8126 15.8233 17.5583 15.8233 17.2446C15.8233 16.9309 15.569 16.6766 15.2553 16.6766H14.6873C14.6873 16.3629 14.433 16.1086 14.1193 16.1086C13.8056 16.1086 13.5513 16.3629 13.5513 16.6766V16.7022C12.9213 16.7911 12.444 17.3162 12.4152 17.9518C12.4559 18.6966 13.0902 19.2688 13.8353 19.2327H14.4033C14.5799 19.2327 14.6873 19.3315 14.6873 19.3747C14.6873 19.4179 14.5799 19.5167 14.4033 19.5167H12.9832C12.6696 19.5167 12.4152 19.771 12.4152 20.0847C12.4152 20.3984 12.6696 20.6527 12.9832 20.6527H13.5513C13.5513 20.9664 13.8056 21.2208 14.1193 21.2208C14.433 21.2208 14.6873 20.9664 14.6873 20.6527V20.6272C15.3173 20.5382 15.7946 20.0132 15.8233 19.3775C15.7827 18.6328 15.1483 18.0606 14.4033 18.0967Z" fill="#18DF96"/>
</g>
<defs>
<clipPath id="clip0">
<rect width="34" height="34" fill="white"/>
</clipPath>
</defs>
</svg>
