<svg width="59" height="24" viewBox="0 0 59 24" fill="none" xmlns="http://www.w3.org/2000/svg">
<g filter="url(#filter0_d)">
<path d="M27.1484 6.00781C27.1484 5.23177 27.5807 4.84375 28.4453 4.84375C29.3099 4.84375 29.7422 5.23177 29.7422 6.00781C29.7422 6.3776 29.6328 6.66667 29.4141 6.875C29.2005 7.07812 28.8776 7.17969 28.4453 7.17969C27.5807 7.17969 27.1484 6.78906 27.1484 6.00781ZM29.6328 17H27.25V8.26562H29.6328V17ZM39.7422 8.26562V9.47656L38.375 9.82812C38.625 10.2188 38.75 10.6562 38.75 11.1406C38.75 12.0781 38.4219 12.8099 37.7656 13.3359C37.1146 13.8568 36.2083 14.1172 35.0469 14.1172L34.6172 14.0938L34.2656 14.0547C34.0208 14.2422 33.8984 14.4505 33.8984 14.6797C33.8984 15.0234 34.3359 15.1953 35.2109 15.1953H36.6953C37.6536 15.1953 38.3828 15.401 38.8828 15.8125C39.388 16.224 39.6406 16.8281 39.6406 17.625C39.6406 18.6458 39.2135 19.4375 38.3594 20C37.5104 20.5625 36.2891 20.8438 34.6953 20.8438C33.4766 20.8438 32.5443 20.6302 31.8984 20.2031C31.2578 19.7812 30.9375 19.1875 30.9375 18.4219C30.9375 17.8958 31.1016 17.4557 31.4297 17.1016C31.7578 16.7474 32.2396 16.4948 32.875 16.3438C32.6302 16.2396 32.4167 16.0703 32.2344 15.8359C32.0521 15.5964 31.9609 15.3438 31.9609 15.0781C31.9609 14.7448 32.0573 14.4688 32.25 14.25C32.4427 14.026 32.7214 13.8073 33.0859 13.5938C32.6276 13.3958 32.263 13.0781 31.9922 12.6406C31.7266 12.2031 31.5938 11.6875 31.5938 11.0938C31.5938 10.1406 31.9036 9.40365 32.5234 8.88281C33.1432 8.36198 34.0286 8.10156 35.1797 8.10156C35.4245 8.10156 35.7135 8.125 36.0469 8.17188C36.3854 8.21354 36.6016 8.24479 36.6953 8.26562H39.7422ZM33 18.2344C33 18.5625 33.1562 18.8203 33.4688 19.0078C33.7865 19.1953 34.2292 19.2891 34.7969 19.2891C35.651 19.2891 36.3203 19.1719 36.8047 18.9375C37.2891 18.7031 37.5312 18.3828 37.5312 17.9766C37.5312 17.6484 37.388 17.4219 37.1016 17.2969C36.8151 17.1719 36.3724 17.1094 35.7734 17.1094H34.5391C34.1016 17.1094 33.7344 17.2109 33.4375 17.4141C33.1458 17.6224 33 17.8958 33 18.2344ZM33.8672 11.125C33.8672 11.599 33.974 11.974 34.1875 12.25C34.4062 12.526 34.737 12.6641 35.1797 12.6641C35.6276 12.6641 35.9557 12.526 36.1641 12.25C36.3724 11.974 36.4766 11.599 36.4766 11.125C36.4766 10.0729 36.0443 9.54688 35.1797 9.54688C34.3047 9.54688 33.8672 10.0729 33.8672 11.125ZM46.0625 8.10156C46.3854 8.10156 46.6536 8.125 46.8672 8.17188L46.6875 10.4062C46.4948 10.3542 46.2604 10.3281 45.9844 10.3281C45.224 10.3281 44.6302 10.5234 44.2031 10.9141C43.7812 11.3047 43.5703 11.8516 43.5703 12.5547V17H41.1875V8.26562H42.9922L43.3438 9.73438H43.4609C43.7318 9.24479 44.0964 8.85156 44.5547 8.55469C45.0182 8.2526 45.5208 8.10156 46.0625 8.10156ZM54 17L53.5391 15.8125H53.4766C53.0755 16.3177 52.6615 16.6693 52.2344 16.8672C51.8125 17.0599 51.2604 17.1562 50.5781 17.1562C49.7396 17.1562 49.0781 16.9167 48.5938 16.4375C48.1146 15.9583 47.875 15.276 47.875 14.3906C47.875 13.4635 48.1979 12.7812 48.8438 12.3438C49.4948 11.901 50.474 11.6562 51.7812 11.6094L53.2969 11.5625V11.1797C53.2969 10.2943 52.8438 9.85156 51.9375 9.85156C51.2396 9.85156 50.4193 10.0625 49.4766 10.4844L48.6875 8.875C49.6927 8.34896 50.8073 8.08594 52.0312 8.08594C53.2031 8.08594 54.1016 8.34115 54.7266 8.85156C55.3516 9.36198 55.6641 10.138 55.6641 11.1797V17H54ZM53.2969 12.9531L52.375 12.9844C51.6823 13.0052 51.1667 13.1302 50.8281 13.3594C50.4896 13.5885 50.3203 13.9375 50.3203 14.4062C50.3203 15.0781 50.7057 15.4141 51.4766 15.4141C52.0286 15.4141 52.4688 15.2552 52.7969 14.9375C53.1302 14.6198 53.2969 14.1979 53.2969 13.6719V12.9531Z" fill="#18DF96"/>
</g>
<circle cx="11" cy="11" r="11" fill="white"/>
<g clip-path="url(#clip0)">
<path d="M4.23077 7.6154C4.23077 7.16658 4.40907 6.73613 4.72644 6.41876C5.04381 6.10139 5.47425 5.9231 5.92308 5.9231H16.0769C16.5258 5.9231 16.9562 6.10139 17.2736 6.41876C17.5909 6.73613 17.7692 7.16658 17.7692 7.6154V8.46156H4.23077V7.6154Z" fill="#18DF96"/>
<path fill-rule="evenodd" clip-rule="evenodd" d="M4.23077 10.1539V14.3846C4.23077 14.8335 4.40907 15.2639 4.72644 15.5813C5.04381 15.8987 5.47425 16.0769 5.92308 16.0769H16.0769C16.5258 16.0769 16.9562 15.8987 17.2736 15.5813C17.5909 15.2639 17.7692 14.8335 17.7692 14.3846V10.1539H4.23077ZM6.76924 11.8462C6.54482 11.8462 6.3296 11.9353 6.17091 12.094C6.01223 12.2527 5.92308 12.4679 5.92308 12.6923V13.5385C5.92308 13.7629 6.01223 13.9781 6.17091 14.1368C6.3296 14.2955 6.54482 14.3846 6.76924 14.3846H7.61539C7.8398 14.3846 8.05503 14.2955 8.21371 14.1368C8.3724 13.9781 8.46154 13.7629 8.46154 13.5385V12.6923C8.46154 12.4679 8.3724 12.2527 8.21371 12.094C8.05503 11.9353 7.8398 11.8462 7.61539 11.8462H6.76924Z" fill="#18DF96"/>
</g>
<defs>
<filter id="filter0_d" x="24.1484" y="1.84375" width="34.5156" height="22" filterUnits="userSpaceOnUse" color-interpolation-filters="sRGB">
<feFlood flood-opacity="0" result="BackgroundImageFix"/>
<feColorMatrix in="SourceAlpha" type="matrix" values="0 0 0 0 0 0 0 0 0 0 0 0 0 0 0 0 0 0 127 0"/>
<feOffset/>
<feGaussianBlur stdDeviation="1.5"/>
<feColorMatrix type="matrix" values="0 0 0 0 0.0941176 0 0 0 0 0.87451 0 0 0 0 0.588235 0 0 0 0.5 0"/>
<feBlend mode="normal" in2="BackgroundImageFix" result="effect1_dropShadow"/>
<feBlend mode="normal" in="SourceGraphic" in2="effect1_dropShadow" result="shape"/>
</filter>
<clipPath id="clip0">
<rect width="13.5385" height="13.5385" fill="white" transform="translate(4.23077 4.23077)"/>
</clipPath>
</defs>
</svg>
